<?xml version="1.0" encoding="UTF-8"?>
<svg xmlns="http://www.w3.org/2000/svg" viewBox="0 0 240 72">
	<path d="M40,24v-4c0-6.63,5.37-12,12-12h20V0h-20c-11.05,0-20,8.95-20,20v4h8Z" style="fill:#00796b; fill-rule:evenodd; stroke-width:0px;" />
	<path d="M64,0v20c0,6.63-5.37,12-12,12h-20v8h20c11.05,0,20-8.95,20-20V0h-8Z" style="fill:#00796b; fill-rule:evenodd; stroke-width:0px;" />
	<path d="M32,48v4c0,6.63-5.37,12-12,12H0v8h20c11.05,0,20-8.95,20-20v-4h-8Z" style="fill:#00796b; fill-rule:evenodd; stroke-width:0px;" />
	<path d="M8,72v-20c0-6.63,5.37-12,12-12h20v-8h-20C8.95,32,0,40.95,0,52v20h8Z" style="fill:#00796b; fill-rule:evenodd; stroke-width:0px;" />
	<path d="M220,8c11.05,0,20,8.95,20,20v16c0,11.05-8.95,20-20,20h-4v-8h4c6.63,0,12-5.37,12-12v-16c0-6.63-5.37-12-12-12h-12v48h-8V8h20Z" style="fill:#00796b; fill-rule:evenodd; stroke-width:0px;" />
	<path d="M104,24v20c0,6.63,5.37,12,12,12h20v8h-20c-11.04,0-20-8.95-20-20v-20h8Z" style="fill:#00796b; fill-rule:evenodd; stroke-width:0px;" />
	<path d="M104,8v24h-8V8h8Z" style="fill:#00796b; fill-rule:evenodd; stroke-width:0px;" />
	<path d="M112,8h4c11.05,0,20,8.95,20,20v12h-40v-8h32v-4c0-6.63-5.37-12-12-12h-4v-8Z" style="fill:#00796b; fill-rule:evenodd; stroke-width:0px;" />
	<path d="M148,8v36c0,11.04,8.96,20,20,20h20v-8h-20c-6.63,0-12-5.37-12-12v-16h0V8h-8Z" style="fill:#00796b; fill-rule:evenodd; stroke-width:0px;" />
	<path d="M188,64V28c0-11.04-8.96-20-20-20h-20s0,8,0,8h20c6.63,0,12,5.37,12,12v16h0v20h8Z" style="fill:#00796b; fill-rule:evenodd; stroke-width:0px;" />
</svg>
